<svg height="24" viewBox="0 0 24 24" width="24" xmlns="http://www.w3.org/2000/svg"><path d="m17 2.5c2.3768455 0 4.323295 1.84274477 4.4886221 4.17750814 1.0772957.40086485 1.8447112 1.43872527 1.8447112 2.65582519v5.33333337c0 1.228364-.7816859 2.2741555-1.8747573 2.667074l.0292509-.0002105c-.17067 2.3295305-2.1147284 4.1664698-4.4878269 4.1664698h-10.33333333c-2.48528138 0-4.5-2.0147186-4.5-4.5v-10c0-2.48528137 2.01471862-4.5 4.5-4.5zm0 1.66666667h-10.33333333c-1.56480679 0-2.83333334 1.26852654-2.83333334 2.83333333v10c0 1.5648068 1.26852655 2.8333333 2.83333334 2.8333333h10.33333333c1.394155 0 2.5531284-1.0069322 2.7893653-2.3332102l-2.6226986-.0001231c-1.5648068 0-2.8333334-1.2685265-2.8333334-2.8333333v-5.33333337c0-1.56480679 1.2685266-2.83333333 2.8333334-2.83333333l2.6226986.00005437c-.2361335-1.32636564-1.3951481-2.3333877-2.7893653-2.3333877zm3.5 4h-3.3333333c-.6443322 0-1.1666667.52233446-1.1666667 1.16666666v5.33333337c0 .6443322.5223345 1.1666666 1.1666667 1.1666666h3.3333333c.6443322 0 1.1666667-.5223344 1.1666667-1.1666666v-5.33333337c0-.6443322-.5223345-1.16666666-1.1666667-1.16666666zm-1.6666667 2.66666663c.6443322 0 1.1666667.5223345 1.1666667 1.1666667s-.5223345 1.1666667-1.1666667 1.1666667-1.1666666-.5223345-1.1666666-1.1666667.5223344-1.1666667 1.1666666-1.1666667z" fill="#fff"/></svg>